<?xml version="1.0" encoding="UTF-8" standalone="no"?>
<!-- Created with Inkscape (http://www.inkscape.org/) -->

<svg
   width="152.45126mm"
   height="151.94875mm"
   viewBox="0 0 152.45126 151.94875"
   version="1.1"
   id="svg1"
   xmlns:inkscape="http://www.inkscape.org/namespaces/inkscape"
   xmlns:sodipodi="http://sodipodi.sourceforge.net/DTD/sodipodi-0.dtd"
   xmlns="http://www.w3.org/2000/svg"
   xmlns:svg="http://www.w3.org/2000/svg">
  <sodipodi:namedview
     id="namedview1"
     pagecolor="#ffffff"
     bordercolor="#000000"
     borderopacity="0.25"
     inkscape:showpageshadow="2"
     inkscape:pageopacity="0.0"
     inkscape:pagecheckerboard="0"
     inkscape:deskcolor="#d1d1d1"
     inkscape:document-units="mm">
    <inkscape:page
       x="0"
       y="0"
       width="152.45126"
       height="151.94875"
       id="page2"
       margin="0"
       bleed="0" />
  </sodipodi:namedview>
  <defs
     id="defs1" />
  <g
     inkscape:label="Capa 1"
     inkscape:groupmode="layer"
     id="layer1"
     transform="translate(-29.307356,-42.875878)">
    <ellipse
       style="fill:none;stroke:#000000;stroke-width:3.7;stroke-linecap:round;stroke-linejoin:round;stroke-dasharray:none;paint-order:stroke fill markers"
       id="path1"
       cx="105.53299"
       cy="118.85024"
       rx="74.375633"
       ry="74.124367" />
    <path
       id="path6"
       style="fill:#000000;fill-opacity:1;stroke:#000000;stroke-width:3.70001;stroke-linecap:round;stroke-linejoin:round;stroke-dasharray:none;paint-order:stroke fill markers"
       d="m 89.699629,61.232875 c -2.261125,-0.0259 -4.520342,0.13055 -6.780664,0.195919 -3.280903,1.662653 -5.901928,4.363372 -7.807652,7.476455 -0.388447,0.634544 -0.70312,1.310639 -1.054668,1.966072 -1.454415,3.127675 -2.467526,6.522525 -2.756319,9.969562 -0.05809,0.693445 -0.04838,1.390948 -0.07265,2.086372 0.02764,4.641531 1.286124,9.154162 2.534315,13.591786 1.484817,4.877039 3.175517,9.688559 4.903137,14.486019 -1.376904,1.10058 -2.738995,2.22002 -4.081431,3.36272 -4.499658,3.97787 -9.044163,8.08961 -12.051693,13.35004 l 5.511487,0.22914 c 2.675969,-5.27657 7.179489,-9.2928 11.561554,-13.15698 0.10537,-0.0893 0.212678,-0.17626 0.318303,-0.26524 0.01651,0.0453 0.03191,0.091 0.04844,0.13634 2.712856,7.3893 5.364214,14.80173 7.576421,22.35548 1.353671,5.12395 2.696687,10.31202 3.129981,15.6117 0.253901,3.10551 0.12779,4.56859 0.03575,7.63456 -0.294051,2.9876 -0.324717,7.69788 -2.774773,9.94894 -0.368349,0.33843 -0.716853,0.55496 -1.067352,0.7115 -0.423509,-0.0632 -0.887485,-0.13352 -1.127325,-0.27211 -0.607483,-0.35105 -1.158903,-0.82635 -1.584018,-1.38232 -1.586995,-2.07545 -1.864626,-4.88381 -2.244845,-7.35329 -0.04027,-0.87837 -0.08024,-1.75682 -0.120516,-2.63518 l -5.224323,0.024 c 0.04212,0.89641 0.08474,1.79261 0.12686,2.68903 0.478146,3.15873 0.834306,7.30313 3.773506,9.29816 2.428384,1.64831 7.259119,0.8492 9.149484,0.87762 1.599749,-0.40942 2.403858,-0.37661 3.609166,-1.65213 2.372338,-2.5105 2.315013,-7.084 2.57122,-10.24224 0.0558,-2.91142 0.16113,-4.77251 -0.07842,-7.70905 -0.434413,-5.32523 -1.768515,-10.54043 -3.124214,-15.69076 -2.193639,-7.56757 -4.89752,-14.96389 -7.527407,-22.39041 -0.389657,-1.06607 -0.769047,-2.13582 -1.149812,-3.20518 3.600356,-2.82025 7.328939,-5.47621 11.165404,-7.97255 L 89.8438,102.79299 c -2.418112,1.62654 -4.790198,3.31865 -7.119149,5.06755 -1.312748,-3.80468 -2.567966,-7.62921 -3.727953,-11.482485 -1.215063,-4.387489 -2.427481,-8.849887 -2.464542,-13.431384 0.159777,-4.089568 0.97301,-8.117673 2.803605,-11.815331 1.945115,-3.536121 4.17753,-6.582998 7.767864,-8.402204 1.162178,0.623341 2.164511,1.555837 3.119024,2.43983 1.97145,2.112588 3.748233,4.382181 5.516677,6.663561 l 5.513224,-0.340282 c -1.917792,-2.220435 -3.69456,-4.553488 -5.675834,-6.719129 -1.527693,-1.43481 -3.591033,-3.514125 -5.877075,-3.540302 z" />
    <path
       id="path8"
       style="fill:#000000;fill-opacity:1;stroke:#000000;stroke-width:3.70001;stroke-linecap:round;stroke-linejoin:round;stroke-dasharray:none;paint-order:stroke fill markers"
       d="m 112.34922,60.999943 c -1.13523,2.455046 -1.02439,5.299306 -1.1563,7.946158 0.0403,2.737265 -0.0527,5.585598 1.19856,8.089877 5.02236,4.87065 7.07639,0.246997 7.93135,-2.958505 0.58362,-2.255281 0.5959,-4.54217 0.18558,-6.820244 -0.0872,-0.30141 -0.1738,-0.602957 -0.26096,-0.904366 l -3.66189,0.108499 c 0.10652,-1.792685 0.3467,-3.591148 1.23281,-5.14103 z m 14.09085,23.334593 -5.47656,0.151676 c 0.34764,1.451201 0.64555,2.906562 1.05523,4.34346 0.54725,2.030725 1.38849,3.950847 2.22865,5.872134 1.19582,2.464738 2.61457,4.817351 4.1347,7.096324 1.70419,2.53806 3.5753,4.96129 5.44345,7.38093 2.00753,2.43876 3.51558,5.14589 4.65432,8.07568 1.3518,3.66286 1.35328,7.32155 1.03981,11.14666 -0.43708,4.46084 -2.06918,8.62196 -3.88744,12.67761 -1.50504,2.94061 -3.15077,5.83451 -5.17109,8.46139 -1.49108,1.93876 -2.16226,2.54696 -3.86175,4.3321 -1.41764,1.43263 -2.89662,2.80916 -4.44304,4.10203 -1.55781,-6.33026 -3.01042,-12.69709 -3.54712,-19.20871 -0.28141,-3.18315 -0.3982,-3.94684 -0.48708,-7.09064 -0.11479,-4.06039 0.14993,-8.11909 0.30777,-12.1743 0.33961,-5.98045 0.8441,-11.94727 1.57886,-17.89363 0.39124,-4.023045 0.59281,-8.07903 1.23509,-12.069764 l -5.46459,-0.118727 c -0.37524,4.040621 -0.54131,8.096785 -0.90961,12.140781 -0.72342,5.95355 -1.22073,11.92684 -1.56287,17.91293 -0.16091,4.06589 -0.43541,8.1368 -0.28721,12.20782 0.10851,2.9812 0.26526,4.12434 0.55503,7.13155 0.62985,7.14688 2.25527,14.13971 3.92627,21.10094 0.10895,0.42977 0.20905,0.86157 0.31348,1.29236 -0.74136,0.484 -1.49406,0.95207 -2.26977,1.38495 -2.89212,1.42975 -6.08089,1.9342 -9.25152,2.32 -1.31038,0.0505 -2.47229,0.50013 -3.6482,1.02139 l 5.33267,0.62658 c 1.16501,-0.4483 2.32905,-0.81628 3.5911,-0.88563 2.35295,-0.3177 4.71009,-0.71624 6.93665,-1.51958 0.48251,2.13778 0.94358,4.28032 1.43096,6.41692 l 5.31326,-0.12385 c -0.73568,-2.9199 -1.4307,-5.85006 -2.17442,-8.76814 3.13362,-2.15182 5.97601,-4.70724 8.63827,-7.41956 1.71496,-1.81233 2.39765,-2.43844 3.908,-4.40311 2.04075,-2.65462 3.72398,-5.56965 5.20991,-8.55968 1.82985,-4.1177 3.50631,-8.32838 3.95597,-12.85143 0.32632,-3.9794 0.31352,-7.54613 -1.01926,-11.379 -1.09987,-2.99221 -2.59703,-5.75321 -4.62519,-8.2336 -1.86954,-2.4069 -3.75,-4.81327 -5.44574,-7.3457 -1.5226,-2.236394 -2.87251,-4.585133 -4.08559,-7.000897 -0.81148,-1.904456 -1.66875,-3.789589 -2.17726,-5.80567 -0.41523,-1.431846 -0.73501,-2.876552 -0.99414,-4.344597 z" />
  </g>
</svg>
